 <svg version="1.0" xmlns="http://www.w3.org/2000/svg" width="700.000000pt" height="697.000000pt" viewBox="0 0 700.000000 697.000000" preserveAspectRatio="xMidYMid meet">
<metadata>
Created by potrace 1.12, written by Peter Selinger 2001-2015
</metadata>
<g transform="translate(0.000000,697.000000) scale(0.100000,-0.100000)" fill="#000000" stroke="none">
<path d="M1628 6523 l-3 -448 -812 -3 -813 -2 0 -45 0 -45 485 0 485 0 -2
-667 -3 -668 -482 -3 -483 -2 0 -45 0 -45 485 0 485 0 0 -1150 0 -1150 -485 0
-485 0 0 -45 0 -45 483 -2 482 -3 3 -1077 2 -1078 40 0 40 0 2 603 3 602 920
0 920 0 3 -602 2 -603 45 0 45 0 2 277 3 278 1543 3 1542 2 0 -280 0 -280 45
0 45 0 0 1109 0 1109 31 6 c17 3 204 6 415 6 l384 0 0 40 0 40 -412 2 -413 3
-3 2328 -2 2327 -45 0 -45 0 0 -450 0 -450 -1120 0 -1120 0 0 450 0 450 -45 0
-45 0 0 -450 0 -450 -1015 0 -1015 0 0 450 0 450 -45 0 -45 0 -2 -447z m2119
-547 c2 -2 3 -605 3 -1341 1 -1082 -2 -1340 -12 -1347 -7 -4 -610 -8 -1340 -8
-1302 0 -1327 0 -1338 19 -12 24 -14 2649 -2 2668 11 17 2670 25 2689 9z
m2333 -631 l0 -635 -1117 2 -1118 3 -3 633 -2 632 1120 0 1120 0 0 -635z
m-1190 -1395 l0 -670 -522 2 -523 3 -3 668 -2 667 525 0 525 0 0 -670z m1190
0 l0 -670 -547 2 -548 3 -3 668 -2 667 550 0 550 0 0 -670z m-2330 -1195 l0
-435 -374 0 c-332 0 -375 2 -380 16 -3 9 -6 204 -6 435 l0 419 380 0 380 0 0
-435z m2328 -2 l-3 -438 -1115 0 -1115 0 -3 438 -2 437 1120 0 1120 0 -2 -437z
m-2328 -993 l0 -460 -377 2 -378 3 -3 425 c-1 234 0 440 3 458 l6 32 374 0
375 0 0 -460z"></path>
</g>
</svg>